<?xml version="1.0" encoding="utf-8"?>
<svg id="master-artboard" viewBox="0 0 512 512" version="1.1" xmlns="http://www.w3.org/2000/svg" x="0px" y="0px" style="enable-background:new 0 0 1400 980;" width="512px" height="512px"><rect id="ee-background" x="0" y="0" width="512" height="512" style="fill: white; fill-opacity: 0; pointer-events: none;"/><g transform="matrix(5.696073532104492, 0, 0, 5.696073532104492, -11.167582511901855, -8.185951232910156)"><g transform="matrix(1, 0, 0, 1, 6.675746178075315e-9, 0.3031841814517975)">
	<g transform="matrix(0.9999999999999999, 0, 0, 0.9999999999999999, 0, 2.282730995478701)">
		
		<g transform="matrix(0.9999999999999999, 0, 0, 0.9999999999999999, 1.4047575356791953, -12.116033745233102)"><path d="M2.167,0v73.199h89.468V0H2.167z M85.825,67.391H7.977V5.81h77.848V67.391z" fill="#FFFFFF" transform="matrix(0.9999999999999999, 0, 0, 0.9999999999999999, -1.5803487300872803, 19.13982391357422)"/><path d="M27.607,34.385l-10.45,10.874v18.349c0,0.516,0.419,0.936,0.936,0.936h12.688c0.517,0,0.936-0.419,0.936-0.936V35.461    l-2.926-1.076H27.607z" fill="#FFFFFF" transform="matrix(0.9999999999999999, 0, 0, 0.9999999999999999, -1.5803487300872803, 19.13982391357422)"/><path d="M53.45,42.913H40.763c-0.518,0-0.937,0.419-0.937,0.936v19.758c0,0.517,0.419,0.937,0.937,0.937H53.45    c0.517,0,0.936-0.419,0.936-0.937V43.848C54.386,43.332,53.967,42.913,53.45,42.913z" fill="#FFFFFF" transform="matrix(0.9999999999999999, 0, 0, 0.9999999999999999, -1.5803487300872803, 19.13982391357422)"/><path d="M71.892,22.785l-2.305-1.926l-8.339,9.097v33.651c0,0.516,0.419,0.936,0.937,0.936h12.688    c0.517,0,0.936-0.419,0.936-0.936V23.095c-0.052,0.03-0.099,0.067-0.152,0.094c-0.485,0.254-1.03,0.388-1.578,0.388    C73.278,23.578,72.504,23.297,71.892,22.785z" fill="#FFFFFF" transform="matrix(0.9999999999999999, 0, 0, 0.9999999999999999, -1.5803487300872803, 19.13982391357422)"/><path d="M14.057,43.857c0.491,0,0.982-0.193,1.35-0.575L27.35,30.854l20.897,7.689c0.714,0.261,1.512,0.068,2.027-0.492    L69.517,17.06l4.502,3.764c0.221,0.184,0.528,0.216,0.782,0.084c0.253-0.133,0.403-0.404,0.377-0.691L74.202,9.305    c-0.034-0.39-0.379-0.677-0.768-0.642L62.521,9.637c-0.285,0.025-0.527,0.221-0.613,0.494c-0.027,0.09-0.036,0.183-0.028,0.274    c0.017,0.184,0.104,0.358,0.251,0.48l4.512,3.771l-18.279,19.94l-20.866-7.678c-0.699-0.255-1.481-0.075-1.997,0.459    L12.708,40.688c-0.716,0.746-0.693,1.93,0.053,2.646C13.123,43.683,13.59,43.857,14.057,43.857z" fill="#FFFFFF" transform="matrix(0.9999999999999999, 0, 0, 0.9999999999999999, -1.5803487300872803, 19.13982391357422)"/></g>
		
		
		
		
	</g>
</g><g>
</g><g>
</g><g>
</g><g>
</g><g>
</g><g>
</g><g>
</g><g>
</g><g>
</g><g>
</g><g>
</g><g>
</g><g>
</g><g>
</g><g>
</g></g></svg>