<?xml version="1.0" encoding="iso-8859-1"?>
<!-- Generator: Adobe Illustrator 18.0.0, SVG Export Plug-In . SVG Version: 6.00 Build 0)  -->
<!DOCTYPE svg PUBLIC "-//W3C//DTD SVG 1.1//EN" "http://www.w3.org/Graphics/SVG/1.1/DTD/svg11.dtd">
<svg xmlns="http://www.w3.org/2000/svg" xmlns:xlink="http://www.w3.org/1999/xlink" version="1.1" id="Capa_1" x="0px" y="0px" viewBox="0 0 373.031 373.031" style="enable-background:new 0 0 373.031 373.031;" xml:space="preserve" width="512px" height="512px">
<g>
	<path d="M111.496,154.707h46.258c2.762,0,5-2.239,5-5v-46.258c0-2.761-2.238-5-5-5h-46.258c-2.762,0-5,2.239-5,5v46.258   C106.496,152.468,108.734,154.707,111.496,154.707z M116.496,108.449h36.258v36.258h-36.258V108.449z" fill="#FFFFFF"/>
	<path d="M106.496,222.707c0,2.761,2.238,5,5,5h46.258c2.762,0,5-2.239,5-5v-46.258c0-2.761-2.238-5-5-5h-46.258   c-2.762,0-5,2.239-5,5V222.707z M116.496,181.449h36.258v36.258h-36.258V181.449z" fill="#FFFFFF"/>
	<path d="M106.496,295.707c0,2.761,2.238,5,5,5h46.258c2.762,0,5-2.239,5-5v-46.258c0-2.761-2.238-5-5-5h-46.258   c-2.762,0-5,2.239-5,5V295.707z M116.496,254.449h36.258v36.258h-36.258V254.449z" fill="#FFFFFF"/>
	<path d="M252.162,121.578h-52.667c-2.762,0-5,2.239-5,5c0,2.761,2.238,5,5,5h52.667c2.762,0,5-2.239,5-5   C257.162,123.817,254.924,121.578,252.162,121.578z" fill="#FFFFFF"/>
	<path d="M180.162,131.578h6c2.762,0,5-2.239,5-5c0-2.761-2.238-5-5-5h-6c-2.762,0-5,2.239-5,5   C175.162,129.339,177.4,131.578,180.162,131.578z" fill="#FFFFFF"/>
	<path d="M252.162,194.578h-24c-2.762,0-5,2.239-5,5c0,2.761,2.238,5,5,5h24c2.762,0,5-2.239,5-5   C257.162,196.817,254.924,194.578,252.162,194.578z" fill="#FFFFFF"/>
	<path d="M180.162,204.578h33.333c2.762,0,5-2.239,5-5c0-2.761-2.238-5-5-5h-33.333c-2.762,0-5,2.239-5,5   C175.162,202.339,177.4,204.578,180.162,204.578z" fill="#FFFFFF"/>
	<path d="M180.162,277.578h72c2.762,0,5-2.239,5-5c0-2.761-2.238-5-5-5h-72c-2.762,0-5,2.239-5,5   C175.162,275.339,177.4,277.578,180.162,277.578z" fill="#FFFFFF"/>
	<path d="M145.577,111.195c-2.519-1.127-5.478,0.001-6.607,2.522l-6.425,14.36l-4.179-5.486c-1.674-2.196-4.81-2.623-7.008-0.947   c-2.196,1.673-2.62,4.811-0.947,7.007l9.282,12.183c0.952,1.249,2.428,1.97,3.977,1.97c0.191,0,0.384-0.011,0.575-0.033   c1.753-0.203,3.27-1.314,3.99-2.925l9.863-22.046C149.227,115.281,148.098,112.323,145.577,111.195z" fill="#FFFFFF"/>
	<g>
		<path d="M62.367,77.501c2.761,0,5-2.239,5-5V49.659c0-5.214,4.242-9.457,9.457-9.457h54.86v20.07H90.001c-2.761,0-5,2.239-5,5    v258.21c0,2.761,2.239,5,5,5h193.66c2.761,0,5-2.239,5-5V65.272c0-2.761-2.239-5-5-5h-41.311v-20.07h53.871    c5.205,0,9.44,4.244,9.44,9.46v270.39c0,2.761,2.239,5,5,5s5-2.239,5-5V49.662c0-10.73-8.721-19.46-19.44-19.46h-53.871v-7.869    c0-2.761-2.239-5-5-5h-19.737C211.219,6.709,199.535,0,187.017,0s-24.202,6.709-30.596,17.333h-19.737c-2.761,0-5,2.239-5,5v7.869    h-54.86c-10.729,0-19.457,8.728-19.457,19.457v22.843C57.367,75.263,59.606,77.501,62.367,77.501z M136.684,81.333h57.001    c2.761,0,5-2.239,5-5s-2.239-5-5-5h-52.001v-44h17.71c1.917,0,3.667-1.097,4.501-2.823C168.158,15.696,177.234,10,187.017,10    s18.859,5.696,23.122,14.51c0.835,1.726,2.584,2.823,4.501,2.823h17.71v44h-19.666c-2.761,0-5,2.239-5,5s2.239,5,5,5h24.666    c2.761,0,5-2.239,5-5v-6.061h36.311v248.21H95.001V70.272h36.683v6.061C131.684,79.095,133.922,81.333,136.684,81.333z" fill="#FFFFFF"/>
		<path d="M62.373,83.953c-2.761,0-5,2.239-5,5v6.818c0,2.761,2.239,5,5,5s5-2.239,5-5v-6.818    C67.373,86.191,65.134,83.953,62.373,83.953z" fill="#FFFFFF"/>
		<path d="M310.664,332.755c-2.761,0-5,2.239-5,5v15.827c0,5.21-4.239,9.449-9.449,9.449H76.822c-5.21,0-9.449-4.239-9.449-9.449    V112.223c0-2.761-2.239-5-5-5s-5,2.239-5,5v241.359c0,10.724,8.725,19.449,19.449,19.449h219.393    c10.724,0,19.449-8.725,19.449-19.449v-15.827C315.664,334.994,313.425,332.755,310.664,332.755z" fill="#FFFFFF"/>
		<circle cx="186.831" cy="30.396" r="9.75" fill="#FFFFFF"/>
	</g>
</g>
<g>
</g>
<g>
</g>
<g>
</g>
<g>
</g>
<g>
</g>
<g>
</g>
<g>
</g>
<g>
</g>
<g>
</g>
<g>
</g>
<g>
</g>
<g>
</g>
<g>
</g>
<g>
</g>
<g>
</g>
</svg>
