<?xml version="1.0" encoding="utf-8"?>
<svg id="master-artboard" viewBox="0 0 512 512" version="1.1" xmlns="http://www.w3.org/2000/svg" x="0px" y="0px" style="enable-background:new 0 0 850.4 1133.9;" width="512px" height="512px"><rect id="ee-background" x="0" y="0" width="512" height="512" style="fill: white; fill-opacity: 0; pointer-events: none;"/><g transform="matrix(0.5169627288260342, 0, 0, 0.5169627288260342, -105.87391663140848, 2.6882688925828546)"><g transform="matrix(1.9140626192092896, 0, 0, 1.9140626192092896, 210.00000602392902, 0.0000034990925996680744)"><g>
  <title>background</title>
  <path d="M -1 -1 H 513 V 513 H -1 V -1 Z" fill="none" id="canvas_background"/>
 </g><g>
  <title>Layer 1</title>
  <path d="M 401.02398681640625 268.8219909667969 L 268.8219909667969 401.02398681640625 L 219.3470001220703 351.54901123046875 L 11.359000205993652 143.5709991455078 L 143.5709991455078 11.359000205993652 L 184.44700622558594 52.23500061035156 Z" id="svg_1" fill="none"/>
  <g id="svg_2">
   <path d="M 171.7570037841797 39.54499816894531 L 120.78199768066406 56.571998596191406 L 166.50599670410156 193.41000366210938 L 61.198001861572266 193.41000366210938 L 268.8219909667969 401.02398681640625 L 401.02398681640625 268.8219909667969 Z" id="svg_3" fill="none"/>
   <path id="svg_4" fill="none" d="m192.276,60.067c-26.901,26.901 -70.516,26.901 -97.417,0l48.708,-48.708l48.709,48.708z"/>
   <path id="svg_5" fill="none" d="m60.067,192.276c26.901,-26.901 26.901,-70.516 0,-97.417l-48.708,48.708l48.708,48.709z"/>
  </g>
  <path d="M 443.99798583984375 357.86700439453125 L 266.6700134277344 417.1189880371094 L 257.5140075683594 389.7149963378906 L 191.91099548339844 193.41000366210938 L 151.27099609375 71.78900146484375 L 328.5989990234375 12.536999702453613 L 389.0400085449219 193.41000366210938 Z" id="svg_6" fill="none"/>
  <g id="svg_7">
   <path d="M 443.99798583984375 357.86700439453125 L 266.6700134277344 417.1189880371094 L 191.91099548339844 193.41000366210938 L 389.0400085449219 193.41000366210938 Z" id="svg_8" fill="none"/>
   <path id="svg_9" fill="none" d="m350.436,77.867c-36.083,12.057 -75.108,-7.419 -87.164,-43.502l65.333,-21.831l21.831,65.333z"/>
   <path id="svg_10" fill="none" d="m173.102,137.123c36.083,-12.057 55.559,-51.081 43.502,-87.164l-65.333,21.831l21.831,65.333z"/>
  </g>
  <path d="M 273.059998 148.059006 H 287.821998 V 162.821006 H 273.059998 V 148.059006 Z" id="svg_11" fill="#FFFFFF" transform="matrix(-0.3169,-0.9485,0.9485,-0.3169,221.8802,470.6844) "/>
  <path d="M 64.906998 225.539993 H 450.426987 V 503.970993 H 64.906998 V 225.539993 Z" id="svg_12" fill="none"/>
  <path d="M 86.323997 225.539993 H 450.426994 V 503.970993 H 86.323997 V 225.539993 Z" id="svg_13" fill="none"/>
  <path id="svg_14" fill="none" d="m359.398,289.79c-44.287,0 -80.317,33.628 -80.317,74.962s36.03,74.962 80.317,74.962l99.057,0l0,-149.924l-99.057,0z"/>
  <path id="svg_15" fill="none" d="m482.551,311.208l0,112.443l-125.83,0c-31.045,0 -56.222,-25.177 -56.222,-56.222c0,-3.095 0.246,-6.136 0.739,-9.092c1.928,-11.887 7.582,-22.51 15.731,-30.66c10.173,-10.173 24.224,-16.47 39.751,-16.47l125.831,0l0,0.001z"/>
  <path id="svg_16" fill="none" d="m483.176002,405.536002l0,18.741l-125.83,0c-31.045,0 -56.222,-25.177 -56.222,-56.222c0,-3.095 0.246,-6.136 0.739,-9.092c0.096,-0.086 0.15,-0.182 0.171,-0.278c5.097,26.59 31.506,46.851 63.343,46.851l117.799,0z"/>
  <path d="M 375.464996 364.756012 A 21.417999 21.417999 0 0 1 354.046997 386.174011 A 21.417999 21.417999 0 0 1 332.628998 364.756012 A 21.417999 21.417999 0 0 1 354.046997 343.338013 A 21.417999 21.417999 0 0 1 375.464996 364.756012 Z" id="svg_17" fill="none"/>
  <path d="M 503.971996 70.261002 A 58.898998 58.898998 0 0 1 445.072998 129.16 A 58.898998 58.898998 0 0 1 386.174 70.261002 A 58.898998 58.898998 0 0 1 445.072998 11.362003 A 58.898998 58.898998 0 0 1 503.971996 70.261002 Z" id="svg_21" fill="none"/>
  <path id="svg_22" fill="none" d="m445.069,107.739c-28.87,0 -52.871,-20.776 -57.909,-48.19c-0.638,3.475 -0.99,7.05 -0.99,10.709c0,32.529 26.37,58.899 58.899,58.899s58.899,-26.37 58.899,-58.899c0,-3.659 -0.35,-7.234 -0.99,-10.709c-5.038,27.413 -29.039,48.19 -57.909,48.19z"/>
  <path id="svg_23" fill="#FFFFFF" d="m441.429,97.223c-2.956,-0.488 -5.777,-1.343 -8.462,-2.564c-2.686,-1.221 -4.954,-2.692 -6.804,-4.414l3.701,-5.359c0.308,-0.437 0.726,-0.803 1.253,-1.099c0.527,-0.294 1.086,-0.443 1.677,-0.443c0.617,0 1.247,0.161 1.889,0.482c0.643,0.321 1.342,0.713 2.101,1.176c0.758,0.463 1.586,0.932 2.487,1.407c0.9,0.475 1.928,0.867 3.084,1.176l1.426,-14.573c-1.85,-0.515 -3.688,-1.122 -5.513,-1.818c-1.825,-0.696 -3.47,-1.637 -4.935,-2.824c-1.465,-1.187 -2.655,-2.695 -3.566,-4.527c-0.912,-1.831 -1.369,-4.127 -1.369,-6.887c0,-2.037 0.411,-4.023 1.234,-5.958c0.822,-1.934 2.024,-3.675 3.605,-5.222c1.581,-1.547 3.527,-2.818 5.841,-3.811c2.313,-0.993 4.959,-1.49 7.942,-1.49l0.424,-4.349c0.077,-0.731 0.398,-1.39 0.964,-1.979c0.564,-0.588 1.297,-0.881 2.197,-0.881l4.395,0l-0.771,7.595c2.776,0.514 5.166,1.343 7.171,2.487c2.005,1.144 3.701,2.371 5.089,3.682l-2.93,4.279c-0.437,0.643 -0.88,1.112 -1.33,1.407s-0.983,0.443 -1.6,0.443c-0.411,0 -0.874,-0.09 -1.388,-0.27c-0.514,-0.179 -1.079,-0.405 -1.696,-0.675c-0.617,-0.27 -1.279,-0.559 -1.985,-0.867s-1.459,-0.578 -2.255,-0.81l-1.349,13.686c1.234,0.36 2.467,0.752 3.701,1.176s2.422,0.912 3.566,1.465c1.143,0.553 2.209,1.189 3.2,1.908c0.99,0.72 1.85,1.568 2.583,2.544c0.732,0.978 1.304,2.101 1.716,3.373c0.41,1.272 0.617,2.718 0.617,4.337c0,2.442 -0.411,4.735 -1.234,6.882c-0.824,2.146 -2.03,4.042 -3.624,5.686c-1.595,1.645 -3.547,2.988 -5.86,4.029c-2.313,1.041 -4.96,1.677 -7.942,1.908l-0.463,4.819c-0.077,0.72 -0.398,1.369 -0.964,1.947c-0.565,0.578 -1.298,0.867 -2.197,0.867l-4.395,0l0.769,-7.941zm-1.773,-41.366c0,1.517 0.482,2.745 1.446,3.682c0.964,0.938 2.23,1.728 3.797,2.371l1.157,-11.643c-1.182,0.18 -2.178,0.443 -2.988,0.79c-0.81,0.347 -1.465,0.765 -1.966,1.253c-0.501,0.488 -0.867,1.034 -1.099,1.638c-0.231,0.604 -0.347,1.24 -0.347,1.909zm16.345,24.943c0,-1.465 -0.469,-2.634 -1.407,-3.508c-0.938,-0.873 -2.178,-1.606 -3.72,-2.197l-1.234,12.722c4.241,-0.746 6.361,-3.085 6.361,-7.017z"/>
  <path fill="#ffffff" id="svg_24" d="m65.747,197.956c28.071,-28.071 29.866,-72.621 5.387,-102.801l24.026,-24.026c9.771,7.933 21.287,13.332 33.724,15.739l3.054,-15.771c-9.275,-1.796 -17.902,-5.701 -25.339,-11.407l36.972,-36.972l26.447,26.449l11.359,-11.358l-37.806,-37.809l-143.571,143.571l60.067,60.064l5.68,-5.679zm-43.029,-54.385l36.978,-36.978c16.648,21.735 16.649,52.218 -0.001,73.952l-36.977,-36.974z"/>
  <path d="M 273.05899 148.048004 H 287.818991 V 162.808004 H 273.05899 V 148.048004 Z" fill="#ffffff" id="svg_25" transform="matrix(-0.9485,0.3169,-0.3169,-0.9485,595.6804,213.968) "/>
  <path fill="#ffffff" id="svg_26" d="m396.658,190.865l-62.987,-188.491l-192.585,64.35l43.542,129.142l15.222,-5.132l-16.531,-49.029c32.843,-15.026 50.884,-51.266 43.049,-86.541l32.24,-10.773c12.632,27.807 40.442,45.064 70.054,45.064c5.486,0 11.033,-0.608 16.557,-1.834l36.201,108.334l15.238,-5.09zm-218.509,-64.495l-16.695,-49.515l49.56,-16.56c5.179,26.826 -8.358,54.026 -32.865,66.075zm95.804,-87.106l49.574,-16.564l16.567,49.577c-26.876,5.186 -54.129,-8.414 -66.141,-33.013z"/>
  <path fill="#ffffff" id="svg_27" d="m276.611,199.054c5.087,-5.15 11.649,-9.167 18.979,-11.616c17.599,-5.882 36.152,-1.494 44.113,10.432l13.36,-8.919c-12.102,-18.126 -37.829,-25.013 -62.565,-16.747c-9.711,3.245 -18.465,8.627 -25.317,15.562l11.43,11.288z"/>
  <path d="M 321.920013 249.634995 H 337.983013 V 265.697994 H 321.920013 V 249.634995 Z" fill="#ffffff" id="svg_28"/>
  <path d="M 193.412994 249.634995 H 209.475994 V 265.697994 H 193.412994 V 249.634995 Z" fill="#ffffff" id="svg_29"/>
  <path d="M 161.287003 249.634995 H 177.350002 V 265.697994 H 161.287003 V 249.634995 Z" fill="#ffffff" id="svg_30"/>
  <path d="M 97.032997 249.634995 H 113.095997 V 265.697994 H 97.032997 V 249.634995 Z" fill="#ffffff" id="svg_31"/>
  <path d="M 289.794006 249.634995 H 305.857006 V 265.697994 H 289.794006 V 249.634995 Z" fill="#ffffff" id="svg_32"/>
  <path d="M 129.544617 249.250381 H 145.607616 V 265.313381 H 129.544617 V 249.250381 Z" fill="#ffffff" id="svg_33"/>
  <path d="M 257.666992 249.634995 H 273.729992 V 265.697994 H 257.666992 V 249.634995 Z" fill="#ffffff" id="svg_34"/>
  <path d="M 418.299988 249.634995 H 434.362988 V 265.697994 H 418.299988 V 249.634995 Z" fill="#ffffff" id="svg_35"/>
  <path d="M 354.046997 249.634995 H 370.109997 V 265.697994 H 354.046997 V 249.634995 Z" fill="#ffffff" id="svg_36"/>
  <path d="M 386.174011 249.634995 H 402.237011 V 265.697994 H 386.174011 V 249.634995 Z" fill="#ffffff" id="svg_37"/>
  <path d="M 225.539993 249.634995 H 241.602993 V 265.697994 H 225.539993 V 249.634995 Z" fill="#ffffff" id="svg_38"/>
  <path d="M 97.032997 463.812988 H 113.095997 V 479.875988 H 97.032997 V 463.812988 Z" fill="#ffffff" id="svg_39"/>
  <path d="M 418.299988 463.812988 H 434.362988 V 479.875988 H 418.299988 V 463.812988 Z" fill="#ffffff" id="svg_40"/>
  <path d="M 386.174011 463.812988 H 402.237011 V 479.875988 H 386.174011 V 463.812988 Z" fill="#ffffff" id="svg_41"/>
  <path d="M 354.046997 463.812988 H 370.109997 V 479.875988 H 354.046997 V 463.812988 Z" fill="#ffffff" id="svg_42"/>
  <path d="M 289.794006 463.812988 H 305.857006 V 479.875988 H 289.794006 V 463.812988 Z" fill="#ffffff" id="svg_43"/>
  <path d="M 321.920013 463.812988 H 337.983013 V 479.875988 H 321.920013 V 463.812988 Z" fill="#ffffff" id="svg_44"/>
  <path d="M 129.160004 463.812988 H 145.223003 V 479.875988 H 129.160004 V 463.812988 Z" fill="#ffffff" id="svg_45"/>
  <path d="M 257.666992 463.812988 H 273.729992 V 479.875988 H 257.666992 V 463.812988 Z" fill="#ffffff" id="svg_46"/>
  <path d="M 193.412994 463.812988 H 209.475994 V 479.875988 H 193.412994 V 463.812988 Z" fill="#ffffff" id="svg_47"/>
  <path d="M 161.287003 463.812988 H 177.350002 V 479.875988 H 161.287003 V 463.812988 Z" fill="#ffffff" id="svg_48"/>
  <path d="M 225.539993 463.812988 H 241.602993 V 479.875988 H 225.539993 V 463.812988 Z" fill="#ffffff" id="svg_49"/>
  <path fill="#ffffff" id="svg_50" d="m458.455,217.505l-401.583,0l0,294.495l401.584,0l0,-80.317l32.127,0l0,-128.507l-32.127,0l0,-85.671l-0.001,0zm-16.063,278.432l-369.457,0l0,-16.063l8.032,0l0,-16.064l-8.032,0l0,-198.115l8.032,0l0,-16.063l-8.032,0l0,-16.063l369.457,0l0,69.608l-85.671,0c-35.429,0 -64.253,28.824 -64.253,64.253s28.824,64.253 64.253,64.253l85.671,0l0,64.254zm32.127,-80.317l-117.798,0c-26.572,0 -48.19,-21.618 -48.19,-48.19c0,-26.572 21.618,-48.19 48.19,-48.19l117.798,0l0,96.38z"/>
  <path fill="#ffffff" id="svg_51" d="m445.069,3.327c-36.905,0 -66.931,30.026 -66.931,66.931s30.026,66.931 66.931,66.931s66.931,-30.026 66.931,-66.931s-30.026,-66.931 -66.931,-66.931zm0,117.798c-28.048,0 -50.867,-22.82 -50.867,-50.867s22.82,-50.867 50.867,-50.867c28.048,0 50.867,22.82 50.867,50.867s-22.819,50.867 -50.867,50.867z"/>
  <path fill="#ffffff" id="svg_52" d="m465.004,71.316c-0.732,-0.977 -1.594,-1.825 -2.583,-2.544c-0.99,-0.719 -2.056,-1.356 -3.2,-1.908s-2.332,-1.041 -3.566,-1.465c-1.234,-0.424 -2.467,-0.816 -3.701,-1.176l1.349,-13.686c0.797,0.231 1.549,0.501 2.255,0.81s1.369,0.598 1.985,0.867c0.617,0.27 1.182,0.495 1.696,0.675s0.977,0.27 1.388,0.27c0.617,0 1.15,-0.148 1.6,-0.443c0.45,-0.296 0.893,-0.765 1.33,-1.407l2.93,-4.279c-1.388,-1.311 -3.084,-2.538 -5.089,-3.682c-2.005,-1.144 -4.395,-1.973 -7.171,-2.487l0.773,-7.596l-4.395,0c-0.9,0 -1.632,0.293 -2.197,0.881c-0.565,0.588 -0.887,1.248 -0.964,1.979l-0.424,4.349c-2.982,0 -5.629,0.497 -7.942,1.49c-2.313,0.994 -4.26,2.264 -5.841,3.811c-1.581,1.547 -2.782,3.288 -3.605,5.222c-0.822,1.935 -1.234,3.922 -1.234,5.958c0,2.76 0.456,5.056 1.369,6.887c0.912,1.831 2.101,3.34 3.566,4.527c1.465,1.187 3.11,2.128 4.935,2.824c1.825,0.696 3.662,1.302 5.513,1.818l-1.426,14.573c-1.157,-0.308 -2.186,-0.7 -3.084,-1.176c-0.9,-0.475 -1.728,-0.945 -2.487,-1.407c-0.758,-0.463 -1.459,-0.855 -2.101,-1.176c-0.644,-0.321 -1.272,-0.482 -1.889,-0.482c-0.591,0 -1.15,0.148 -1.677,0.443c-0.527,0.296 -0.945,0.662 -1.253,1.099l-3.701,5.359c1.85,1.722 4.119,3.193 6.804,4.414c2.685,1.221 5.507,2.075 8.462,2.564l-0.771,7.942l4.395,0c0.9,0 1.632,-0.289 2.197,-0.867c0.565,-0.578 0.887,-1.227 0.964,-1.947l0.463,-4.819c2.981,-0.231 5.629,-0.867 7.942,-1.908c2.313,-1.041 4.265,-2.384 5.86,-4.029c1.594,-1.645 2.8,-3.54 3.624,-5.686c0.822,-2.145 1.234,-4.44 1.234,-6.882c0,-1.619 -0.206,-3.065 -0.617,-4.337c-0.413,-1.272 -0.984,-2.396 -1.716,-3.373zm-20.105,-9.407c-1.568,-0.643 -2.834,-1.433 -3.797,-2.371c-0.964,-0.938 -1.446,-2.165 -1.446,-3.682c0,-0.668 0.116,-1.304 0.347,-1.908c0.231,-0.603 0.598,-1.15 1.099,-1.638c0.501,-0.488 1.157,-0.906 1.966,-1.253c0.81,-0.347 1.806,-0.61 2.988,-0.79l-1.157,11.642zm4.741,25.907l1.234,-12.722c1.542,0.591 2.782,1.324 3.72,2.197s1.407,2.043 1.407,3.508c0,3.933 -2.12,6.272 -6.361,7.017z"/>
  <path fill="#ffffff" id="svg_53" d="m324.594,364.753c0,16.239 13.21,29.449 29.449,29.449s29.449,-13.211 29.449,-29.449c0,-16.239 -13.211,-29.449 -29.449,-29.449s-29.449,13.21 -29.449,29.449zm42.836,0c0,7.382 -6.004,13.386 -13.386,13.386s-13.386,-6.004 -13.386,-13.386c0,-7.382 6.004,-13.386 13.386,-13.386s13.386,6.004 13.386,13.386z"/>
  <g id="svg_54"/>
  <g id="svg_55"/>
  <g id="svg_56"/>
  <g id="svg_57"/>
  <g id="svg_58"/>
  <g id="svg_59"/>
  <g id="svg_60"/>
  <g id="svg_61"/>
  <g id="svg_62"/>
  <g id="svg_63"/>
  <g id="svg_64"/>
  <g id="svg_65"/>
  <g id="svg_66"/>
  <g id="svg_67"/>
  <g id="svg_68"/>
 </g></g></g></svg>